<svg xmlns="http://www.w3.org/2000/svg" viewBox="0 0 396.2 108.71"><defs><style>.cls-1{fill:#ec2027;}.cls-2{fill:#d91f26;}.cls-3{fill:#076cb0;}.cls-4{fill:#243774;}.cls-5{fill:#09b14e;}.cls-6{fill:#117c3e;}.cls-7{fill:#0d73bb;}.cls-8{fill:#9b9c9c;}</style></defs><g id="Layer_2" data-name="Layer 2"><g id="Layer_1-2" data-name="Layer 1"><polygon class="cls-1" points="26.49 56.73 26.49 78.87 0 93.46 0 42.14 26.49 56.73"/><polygon class="cls-2" points="26.49 27.55 26.49 56.73 0 42.14 26.49 27.55"/><polygon class="cls-2" points="46.59 67.8 26.49 78.87 26.49 56.73 46.59 67.8"/><polygon class="cls-3" points="56.85 78.47 76.03 67.4 101.91 83.05 57.46 108.71 56.85 78.47"/><polygon class="cls-4" points="31.58 93.06 56.85 78.47 57.46 108.71 31.58 93.06"/><polygon class="cls-4" points="56.39 55.53 76.03 67.4 56.85 78.47 56.39 55.53"/><polygon class="cls-5" points="60.5 41.31 41.33 30.24 41.93 0 86.38 25.66 60.5 41.31"/><polygon class="cls-6" points="85.77 55.9 60.5 41.31 86.38 25.66 85.77 55.9"/><polygon class="cls-6" points="40.86 53.17 41.33 30.24 60.5 41.31 40.86 53.17"/><path class="cls-7" d="M98.55,34V38.8H106V60.2h5.92V38.8h7.49V34Z"/><path class="cls-7" d="M138.75,42.94A5.87,5.87,0,0,0,134,41a6.57,6.57,0,0,0-3.26.81,7.23,7.23,0,0,0-2.49,2.44h-.08V32.49h-5.78V60.2h5.78V49.53a4.53,4.53,0,0,1,.94-2.93,3.13,3.13,0,0,1,2.5-1.15,2.58,2.58,0,0,1,2.24,1,5.23,5.23,0,0,1,.75,3.08V60.2h5.77V48.7A8.89,8.89,0,0,0,138.75,42.94Z"/><rect class="cls-7" x="144.9" y="41.49" width="5.78" height="18.71"/><path class="cls-2" d="M151.24,35.72a3,3,0,0,1-.94,2.3,3.5,3.5,0,0,1-2.47.88,3.41,3.41,0,0,1-2.45-.91,3,3,0,0,1-.94-2.27,3,3,0,0,1,.94-2.29,3.84,3.84,0,0,1,4.92,0A3,3,0,0,1,151.24,35.72Z"/><path class="cls-7" d="M167.13,41.2a7,7,0,0,0-.8,0,4.83,4.83,0,0,0-3,.94A6.06,6.06,0,0,0,161.4,45h-.07V41.49h-5.79V60.2h5.79V51.26a5.89,5.89,0,0,1,1.1-3.8,4.22,4.22,0,0,1,3.41-1.34,6.65,6.65,0,0,1,.81,0,5.52,5.52,0,0,1,.71.11l.59-4.92Z"/><path class="cls-7" d="M183,32.49V43.62h-.08a4.69,4.69,0,0,0-2-1.95,6.87,6.87,0,0,0-3.08-.65,7.68,7.68,0,0,0-6.17,2.8,11.19,11.19,0,0,0-2.36,7.44,10.28,10.28,0,0,0,2.13,6.92,7.74,7.74,0,0,0,9,1.72,6.73,6.73,0,0,0,2.43-2.27H183V60.2h5.76V32.49Zm.1,18.61A5.85,5.85,0,0,1,182,54.83a3.7,3.7,0,0,1-5.75.08,6.14,6.14,0,0,1-1-3.81A6.85,6.85,0,0,1,176.29,47a3.44,3.44,0,0,1,3-1.51A3.49,3.49,0,0,1,182,46.66a4.44,4.44,0,0,1,1.06,3Z"/><path class="cls-7" d="M221.21,36.12c-1.66-1.42-4.13-2.14-7.43-2.14h-9.25V60.2h5.9V51.6h2.81a11,11,0,0,0,7.59-2.49,8.28,8.28,0,0,0,2.86-6.55C223.69,39.69,222.85,37.56,221.21,36.12ZM216.29,46a5.1,5.1,0,0,1-3.54,1.1h-2.32V38.51h2.32a5.2,5.2,0,0,1,3.54,1.06,4.14,4.14,0,0,1,1.18,3.2A4.24,4.24,0,0,1,216.29,46Z"/><path class="cls-7" d="M242.05,43.64a9.91,9.91,0,0,0-7.3-2.62,10.49,10.49,0,0,0-7.52,2.63,9.6,9.6,0,0,0-2.78,7.27A9.43,9.43,0,0,0,227.12,58,11.63,11.63,0,0,0,242,57.94a9.87,9.87,0,0,0,2.74-7.35A9.32,9.32,0,0,0,242.05,43.64Zm-4.27,11.21a3.64,3.64,0,0,1-3.11,1.39,4,4,0,0,1-3.27-1.35,6.38,6.38,0,0,1-1.08-4,6.29,6.29,0,0,1,1.12-4,3.87,3.87,0,0,1,3.19-1.42,3.78,3.78,0,0,1,3.15,1.31,6.31,6.31,0,0,1,1,3.93A7,7,0,0,1,237.78,54.85Z"/><path class="cls-7" d="M248.45,32.49V60.2h5.78V32.49Z"/><path class="cls-7" d="M273.39,54.47A9.45,9.45,0,0,1,270.64,56a7.34,7.34,0,0,1-2.23.49,5.12,5.12,0,0,1-3.34-1,4,4,0,0,1-1.38-3h12.23V50.2c0-3-.8-5.26-2.35-6.83A8.36,8.36,0,0,0,267.34,41a8.82,8.82,0,0,0-6.71,2.81A10.29,10.29,0,0,0,258,51.14a9.53,9.53,0,0,0,2.5,7,9.53,9.53,0,0,0,7,2.51A13.89,13.89,0,0,0,272,60,13.72,13.72,0,0,0,276,57.75ZM264.9,46a3.16,3.16,0,0,1,2.39-1.08,3.09,3.09,0,0,1,2.45.92,4.7,4.7,0,0,1,.81,3.1h-6.89A5,5,0,0,1,264.9,46Z"/><path class="cls-7" d="M305.85,50v5.16a6,6,0,0,1-1.47.43,11.76,11.76,0,0,1-1.89.14,7.61,7.61,0,0,1-5.55-2.05c-1.42-1.36-2.14-3.5-2.14-6.41s.72-5.08,2.16-6.56a7.74,7.74,0,0,1,5.81-2.2,18.84,18.84,0,0,1,3.63.33,20.39,20.39,0,0,1,3.51,1.06l1.84-4.57A26,26,0,0,0,307.36,34a25.47,25.47,0,0,0-4.59-.4q-6.66,0-10.42,4a14,14,0,0,0-3.75,10q0,6.59,3.69,9.86c2.47,2.2,5.79,3.29,9.93,3.29a19.92,19.92,0,0,0,5.3-.66,14.93,14.93,0,0,0,4.23-1.78V45.27h-5.9Z"/><path class="cls-7" d="M327.88,41.2a7.14,7.14,0,0,0-.8,0,4.84,4.84,0,0,0-3,.94A6,6,0,0,0,322.14,45h-.08V41.49h-5.77V60.2h5.77V51.26a5.84,5.84,0,0,1,1.12-3.8,4.22,4.22,0,0,1,3.41-1.34,6.52,6.52,0,0,1,.79,0,5,5,0,0,1,.72.11l.58-4.92Z"/><path class="cls-7" d="M347.68,43.64A9.93,9.93,0,0,0,340.37,41a10.42,10.42,0,0,0-7.5,2.63,9.57,9.57,0,0,0-2.8,7.27A9.44,9.44,0,0,0,332.75,58a11.64,11.64,0,0,0,14.85-.09,9.91,9.91,0,0,0,2.74-7.35A9.37,9.37,0,0,0,347.68,43.64Zm-4.26,11.21a3.7,3.7,0,0,1-3.13,1.39A3.89,3.89,0,0,1,337,54.89a6.25,6.25,0,0,1-1.1-4,6.17,6.17,0,0,1,1.14-4,3.81,3.81,0,0,1,3.18-1.42,3.77,3.77,0,0,1,3.14,1.31,6.31,6.31,0,0,1,1.05,3.93A7,7,0,0,1,343.42,54.85Z"/><path class="cls-7" d="M366.1,41.49v10.7a4.38,4.38,0,0,1-.93,3,3.09,3.09,0,0,1-2.48,1.09,2.78,2.78,0,0,1-2.36-1,4.72,4.72,0,0,1-.79-3V41.49h-5.75V52.78q0,3.93,1.63,5.91a5.93,5.93,0,0,0,4.87,2,6.3,6.3,0,0,0,3.23-.84A7.27,7.27,0,0,0,366,57.34h.09V60.2h5.77V41.49Z"/><path class="cls-7" d="M394.21,43.52a6.81,6.81,0,0,0-5.62-2.5,6.69,6.69,0,0,0-6,3.28h-.07V41.49h-5.78V68.8h5.78V58h.07a6,6,0,0,0,2.17,2,6.4,6.4,0,0,0,3,.66,7.54,7.54,0,0,0,6.16-2.84,11.51,11.51,0,0,0,2.32-7.52A10.63,10.63,0,0,0,394.21,43.52Zm-5,11.19a3.55,3.55,0,0,1-3.06,1.53A3.36,3.36,0,0,1,383.44,55a4.74,4.74,0,0,1-1-3.17V50.35a5.36,5.36,0,0,1,1.12-3.56,3.6,3.6,0,0,1,2.9-1.34,3.43,3.43,0,0,1,2.87,1.24,5.92,5.92,0,0,1,.95,3.69A7.41,7.41,0,0,1,389.19,54.71Z"/><rect class="cls-1" x="284.74" y="77.63" width="14.24" height="5.85"/><rect class="cls-1" x="381.95" y="77.63" width="14.24" height="5.85"/><path class="cls-8" d="M308.17,82.84v4.64h-2.26V74.15h4.17a5.17,5.17,0,0,1,3.54,1.08,3.94,3.94,0,0,1,1.22,3.12,4.21,4.21,0,0,1-1.37,3.25,5.31,5.31,0,0,1-3.7,1.24Zm0-6.84v5h1.41a3.11,3.11,0,0,0,2.15-.65,2.41,2.41,0,0,0,.72-1.89,2.34,2.34,0,0,0-.69-1.85,3.11,3.11,0,0,0-2.08-.61Z"/><path class="cls-8" d="M325.45,77.73l-3.77,9.75h-2.39l-3.59-9.75h2.39l2.13,6.6c.09.3.16.57.22.83a4,4,0,0,1,.11.7h0q0-.36.12-.72c.06-.24.13-.49.22-.75l2.2-6.66Z"/><path class="cls-8" d="M332.41,87.34a4.28,4.28,0,0,1-.88.27,5.23,5.23,0,0,1-1,.08,2.54,2.54,0,0,1-2.83-2.86V79.45h-1.63V77.73h1.63V75.52l2.21-.67v2.88h2.33v1.72h-2.33v5.19a1.6,1.6,0,0,0,.27,1A1,1,0,0,0,331,86a2.1,2.1,0,0,0,.51-.06,1.91,1.91,0,0,0,.44-.16Z"/><path class="cls-8" d="M335.23,87.69a1.4,1.4,0,0,1-1-.37,1.23,1.23,0,0,1-.41-.94,1.28,1.28,0,0,1,.41-.95,1.52,1.52,0,0,1,2,0,1.26,1.26,0,0,1,.39.94,1.24,1.24,0,0,1-.4.95A1.37,1.37,0,0,1,335.23,87.69Z"/><path class="cls-8" d="M352,87.48h-7.41V74.15h2.26V85.57H352Z"/><path class="cls-8" d="M359,87.34a4.1,4.1,0,0,1-.88.27,5.23,5.23,0,0,1-1,.08,2.54,2.54,0,0,1-2.83-2.86V79.45h-1.62V77.73h1.62V75.52l2.21-.67v2.88h2.34v1.72h-2.34v5.19a1.6,1.6,0,0,0,.27,1,1,1,0,0,0,.81.31,2.1,2.1,0,0,0,.51-.06,1.91,1.91,0,0,0,.44-.16Z"/><path class="cls-8" d="M367.5,86a3.6,3.6,0,0,1-1.32,1.31,3.89,3.89,0,0,1-1.88.43,3.66,3.66,0,0,1-2.94-1.3,5.34,5.34,0,0,1-1.11-3.58A5.82,5.82,0,0,1,361.47,79a4,4,0,0,1,3.24-1.45,3.46,3.46,0,0,1,1.67.37A2.66,2.66,0,0,1,367.5,79h0V73.39h2.23V87.48h-2.23V86Zm-5-3.23a3.63,3.63,0,0,0,.68,2.36A2.21,2.21,0,0,0,365,86a2.29,2.29,0,0,0,1.84-.85,3.28,3.28,0,0,0,.7-2.18V81.8a2.55,2.55,0,0,0-.67-1.81,2.24,2.24,0,0,0-1.73-.73,2.33,2.33,0,0,0-2,.92A4.16,4.16,0,0,0,362.51,82.74Z"/><path class="cls-8" d="M373.64,87.69a1.4,1.4,0,0,1-1-.37,1.22,1.22,0,0,1-.4-.94,1.27,1.27,0,0,1,.4-.95,1.52,1.52,0,0,1,2,0,1.34,1.34,0,0,1,0,1.89A1.41,1.41,0,0,1,373.64,87.69Z"/></g></g></svg>